{
    "asset" : {
        "generator" : "Khronos glTF Blender I/O v1.5.17",
        "version" : "2.0"
    },
    "scene" : 0,
    "scenes" : [
        {
            "name" : "Scene",
            "nodes" : [
                0,
                1,
                2
            ]
        }
    ],
    "nodes" : [
        {
            "name" : "Light",
            "rotation" : [
                0.16907575726509094,
                0.7558803558349609,
                -0.27217137813568115,
                0.570947527885437
            ],
            "translation" : [
                4.076245307922363,
                5.903861999511719,
                -1.0054539442062378
            ]
        },
        {
            "name" : "Camera",
            "rotation" : [
                0.506304144859314,
                0.3362623453140259,
                -0.21718277037143707,
                0.7638163566589355
            ],
            "scale" : [
                1.0700000524520874,
                1.1399999856948853,
                1.2100000381469727
            ],
            "translation" : [
                4.342539310455322,
                4.511690139770508,
                5.243559837341309
            ]
        },
        {
            "mesh" : 0,
            "name" : "Object",
            "rotation" : [
                0.006980640813708305,
                -9.138158202404156e-05,
                -0.013089274987578392,
                0.9998899698257446
            ],
            "scale" : [
                0.11799824237823486,
                0.11799824237823486,
                0.11799824237823486
            ],
            "translation" : [
                0,
                0.4114273488521576,
                0.1899999976158142
            ]
        }
    ],
    "meshes" : [
        {
            "name" : "Mesh",
            "primitives" : [
                {
                    "attributes" : {
                        "POSITION" : 0,
                        "NORMAL" : 1,
                        "TEXCOORD_0" : 2
                    },
                    "indices" : 3
                }
            ]
        }
    ],
    "accessors" : [
        {
            "bufferView" : 0,
            "componentType" : 5126,
            "count" : 3322,
            "max" : [
                4.7257080078125,
                21.92788314819336,
                7.1654205322265625
            ],
            "min" : [
                -4.7257232666015625,
                0.21564483642578125,
                -7.1654205322265625
            ],
            "type" : "VEC3"
        },
        {
            "bufferView" : 1,
            "componentType" : 5126,
            "count" : 3322,
            "type" : "VEC3"
        },
        {
            "bufferView" : 2,
            "componentType" : 5126,
            "count" : 3322,
            "type" : "VEC2"
        },
        {
            "bufferView" : 3,
            "componentType" : 5123,
            "count" : 17976,
            "type" : "SCALAR"
        }
    ],
    "bufferViews" : [
        {
            "buffer" : 0,
            "byteLength" : 39864,
            "byteOffset" : 0
        },
        {
            "buffer" : 0,
            "byteLength" : 39864,
            "byteOffset" : 39864
        },
        {
            "buffer" : 0,
            "byteLength" : 26576,
            "byteOffset" : 79728
        },
        {
            "buffer" : 0,
            "byteLength" : 35952,
            "byteOffset" : 106304
        }
    ],
    "buffers" : [
        {
            "byteLength" : 142256,
            "uri" : "data:application/octet-stream;base64,"
        }
    ]
}
