<svg width="1920" height="715" viewBox="0 0 1920 715" fill="none" xmlns="http://www.w3.org/2000/svg">
<path d="M-350.291 625.965C-266.002 572.76 -169.85 523.604 -53.4367 494.602C104.21 455.318 314.11 458.935 440.832 532.68C586.749 617.594 670.371 702.03 904.531 712.994C1069.64 720.728 1265.81 683.787 1356.54 605.083C1410.4 558.384 1440.08 504.178 1484.78 454.453C1591.99 335.214 1773.46 306.872 1986.24 370.563C2087.86 400.976 2202.9 436.142 2310.11 415.784C2450.7 389.102 2503.75 278.871 2649.98 263.221C2729.87 254.668 2809.36 278.12 2885.91 295.157C3068.27 335.76 3143.98 247.366 3309.4 258.558C3350.9 261.355 3388.54 274.116 3429.15 279.985C3471.09 286.036 3553.29 279.962 3538.72 246.525" stroke="#F5F8FF" stroke-opacity="0.3" stroke-width="1.0073" stroke-miterlimit="10" stroke-linecap="round" stroke-linejoin="round"/>
<path d="M-342.689 598.737C-258.89 545.782 -160.693 499.402 -43.7912 473.379C40.0088 454.636 137.361 447.88 228.67 456.524C309.271 464.19 385.428 483.706 444.834 517.417C553.961 579.402 630.518 641.66 758.173 674.712C800.518 685.698 848.638 693.387 905.245 696.981C1068.76 707.353 1261.68 675.462 1357.48 600.58C1414.8 555.746 1448.26 502.404 1494.38 452.748C1518.02 427.226 1544.68 405.525 1574.18 387.783C1679.66 324.569 1819.05 316.926 1988.96 356.438C2042.77 368.948 2099.77 386.213 2156.65 398.974C2230.54 415.489 2308.56 421.721 2382.01 407.982C2514.68 382.847 2568.09 281.077 2706.28 265.382C2781.68 256.852 2856.77 277.347 2929.11 292.383C3100.44 327.981 3174.51 247.367 3330.16 258.513C3369.3 261.333 3404.89 273.275 3443.19 279.098C3482.74 285.104 3558.94 280.236 3547.12 250.642" stroke="#F5F8FF" stroke-opacity="0.3" stroke-width="1.0073" stroke-miterlimit="10" stroke-linecap="round" stroke-linejoin="round"/>
<path d="M-335.045 571.509C-251.778 518.828 -151.494 475.222 -34.1028 452.179C49.6972 435.574 145.849 430.82 235.47 440.692C314.693 449.45 389.429 469.353 448.835 502.2C557.384 562.342 636.03 623.304 761.641 657.106C803.497 668.411 850.817 676.554 905.958 681.013C1067.83 694.069 1257.69 667.182 1358.37 596.121C1419.24 553.153 1456.35 500.698 1503.93 451.11C1527.93 425.929 1554.54 404.115 1583.69 385.963C1687.04 321.976 1821.45 311.308 1991.63 342.38C2056.1 354.14 2122.88 374.772 2189.48 390.194C2275.19 410.029 2367.97 416.308 2453.9 400.225C2578.85 376.842 2632.39 283.307 2762.58 267.589C2833.45 259.081 2904.18 276.642 2972.3 289.653C3132.61 320.27 3205.08 247.412 3350.91 258.535C3387.7 261.356 3421.24 272.525 3457.24 278.28C3494.43 284.262 3564.58 280.577 3555.48 254.805" stroke="#F5F8FF" stroke-opacity="0.3" stroke-width="1.0073" stroke-miterlimit="10" stroke-linecap="round" stroke-linejoin="round"/>
<path d="M-327.451 544.303C-244.673 491.872 -142.256 451.178 -24.4652 431.001C59.4236 416.625 154.287 413.782 242.264 424.86C320.11 434.709 393.379 454.976 452.83 486.959C560.801 545.259 641.535 604.924 765.102 639.476C806.469 651.1 853.035 659.721 906.62 664.998C1066.89 680.784 1253.73 658.879 1359.26 591.617C1423.73 550.513 1464.43 498.923 1513.53 449.403C1537.92 424.564 1564.36 402.613 1593.24 384.052C1694.19 319.178 1825.58 304.142 1994.29 328.208C2069.91 339.013 2146.02 363.193 2222.27 381.322C2319.8 404.456 2427.24 410.688 2525.7 392.377C2642.74 370.586 2696.63 285.444 2818.82 269.726C2885.2 261.242 2951.5 275.868 3015.44 286.855C3164.64 312.513 3235.56 247.389 3371.65 258.466C3406.04 261.287 3437.59 271.66 3471.27 277.392C3506.11 283.329 3570.22 280.849 3563.87 258.921" stroke="#F5F8FF" stroke-opacity="0.3" stroke-width="1.0073" stroke-miterlimit="10" stroke-linecap="round" stroke-linejoin="round"/>
<path d="M-319.848 517.073C-237.558 464.892 -133.097 427.018 -14.8177 409.799C69.071 397.584 162.735 396.719 249.023 409.003C325.492 419.944 397.339 440.598 456.79 471.716C564.228 528.173 647.006 586.519 768.574 621.845C809.452 633.787 855.262 642.908 907.292 649.004C1065.96 667.566 1249.87 650.62 1360.15 587.133C1428.26 547.918 1472.74 497.238 1523.08 447.718C1547.92 423.265 1574.18 401.178 1602.75 382.184C1701.53 316.514 1830.56 295.951 1996.96 314.103C2084.05 323.611 2169.13 351.703 2255.11 372.517C2364.46 398.948 2486.61 405.136 2597.6 384.572C2706.77 364.35 2760.98 287.625 2875.12 271.885C2936.97 263.423 2998.87 275.137 3058.59 284.1C3196.68 304.822 3266.04 247.432 3392.36 258.441C3424.4 261.262 3453.9 270.838 3485.27 276.525C3517.75 282.416 3575.83 281.12 3572.23 263.036" stroke="#F5F8FF" stroke-opacity="0.3" stroke-width="1.0073" stroke-miterlimit="10" stroke-linecap="round" stroke-linejoin="round"/>
<path d="M-312.256 489.845C-230.5 437.914 -123.95 402.839 -5.22646 388.599C78.6623 378.522 171.171 379.66 255.771 393.149C330.862 405.182 401.243 426.2 460.738 456.476C567.599 511.091 652.465 568.14 771.989 604.217C812.423 616.477 857.433 626.122 907.953 633.014C1065.02 654.419 1246.04 642.386 1360.99 582.653C1432.79 545.348 1480.78 495.509 1532.59 446.058C1557.82 421.946 1583.95 399.745 1612.21 380.342C1708.85 313.876 1835.84 287.012 1999.57 300.023C2098.35 307.871 2192.23 340.217 2287.85 363.737C2409.06 393.49 2545.83 399.609 2669.4 376.816C2770.66 358.141 2825.22 289.878 2931.33 274.114C2988.69 265.675 3046.14 274.456 3101.68 281.393C3228.58 297.202 3296.47 247.5 3413.02 258.487C3442.7 261.331 3470.2 270.111 3499.26 275.729C3529.39 281.575 3581.42 281.484 3580.53 267.245" stroke="#F5F8FF" stroke-opacity="0.3" stroke-width="1.0073" stroke-miterlimit="10" stroke-linecap="round" stroke-linejoin="round"/>
<path d="M-304.611 462.642C-223.388 410.961 -114.795 378.683 4.46201 367.401C88.3508 359.462 179.66 362.601 262.571 377.296C336.285 390.443 405.244 411.825 464.784 441.237C571.067 494.01 658.021 549.762 775.501 586.589C815.446 599.168 859.657 609.359 908.666 617.002C1064.09 641.296 1242.36 634.153 1361.92 578.15C1437.46 542.756 1488.96 493.76 1542.19 444.353C1567.78 420.606 1593.86 398.291 1621.77 378.433C1716.27 311.193 1841.4 294.929 2002.24 285.876C2112.61 279.666 2215.34 328.686 2320.69 354.89C2453.72 387.941 2605.15 393.992 2741.25 368.993C2834.6 351.842 2889.47 292.041 2987.58 276.254C3040.41 267.838 3093.42 273.729 3144.83 278.597C3260.48 289.538 3327 247.48 3433.77 258.421C3461.1 261.264 3486.56 269.248 3513.31 274.844C3541.08 280.667 3587.02 281.759 3588.93 271.341" stroke="#F5F8FF" stroke-opacity="0.3" stroke-width="1.0073" stroke-miterlimit="10" stroke-linecap="round" stroke-linejoin="round"/>
<path d="M-297.018 435.416C-216.284 384.008 -105.646 354.483 14.0997 346.203C97.9884 340.403 188.098 345.543 269.321 361.466C341.657 375.706 409.15 397.452 468.734 426.022C574.439 476.952 663.482 531.408 778.918 568.986C818.374 581.883 861.785 592.62 909.284 601.036C1063.06 628.287 1238.66 626.012 1362.76 573.694C1442.08 540.256 1496.95 492.033 1551.69 442.718C1577.64 419.311 1603.63 396.906 1631.22 376.616C1723.64 308.625 1847.57 282.353 2004.86 271.821C2126.16 263.678 2238.44 317.224 2353.48 346.135C2498.33 382.484 2664.42 388.444 2813.09 361.261C2898.49 345.634 2953.76 294.295 3043.83 278.509C3092.17 270.115 3140.65 273.14 3187.92 275.915C3292.25 282.034 3357.43 247.573 3454.43 258.469C3479.36 261.312 3502.82 268.5 3527.25 274.05C3552.67 279.828 3592.57 282.125 3597.19 275.551" stroke="#F5F8FF" stroke-opacity="0.3" stroke-width="1.0073" stroke-miterlimit="10" stroke-linecap="round" stroke-linejoin="round"/>
<path d="M-289.416 408.185C-209.171 357.027 -96.4896 330.277 23.7451 324.999C107.634 321.314 196.544 328.48 276.122 345.608C347.081 360.94 413.153 383.072 472.737 410.778C577.864 459.866 668.996 513.002 782.432 551.353C821.399 564.569 864.01 575.875 910.043 585.019C1062.09 615.272 1235.11 617.865 1363.74 569.187C1446.88 537.705 1504.95 490.21 1561.34 441.008C1587.55 417.92 1613.68 395.469 1640.78 374.724C1731.38 306.051 1852.99 268.906 2007.57 257.669C2139.98 248.047 2261.59 305.687 2386.32 337.283C2542.99 376.953 2723.69 382.777 2884.94 353.41C2962.43 339.307 3018.06 296.452 3100.08 280.62C3143.89 272.25 3187.88 272.432 3231.07 273.091C3324.02 274.502 3387.92 247.524 3475.14 258.397C3497.71 261.24 3519.13 267.655 3541.25 273.137C3564.27 278.869 3598.17 282.372 3605.55 279.62" stroke="#F5F8FF" stroke-opacity="0.3" stroke-width="1.0073" stroke-miterlimit="10" stroke-linecap="round" stroke-linejoin="round"/>
<path d="M-281.82 380.981C-202.064 330.074 -87.3831 305.962 33.3847 303.824C117.274 302.186 204.984 311.444 282.874 329.778C352.455 346.201 417.06 368.721 476.689 395.562C581.283 442.807 674.459 494.647 785.851 533.726C824.33 547.261 866.141 559.157 910.663 569.029C1060.93 602.354 1231.51 609.792 1364.54 564.707C1451.54 535.228 1512.95 488.483 1570.8 439.327C1597.41 416.58 1623.41 394.015 1650.2 372.838C1738.66 303.392 1857.43 254.85 2010.1 243.545C2153.84 232.899 2284.61 294.179 2419.02 328.459C2587.51 371.428 2782.83 377.114 2956.7 345.61C3026.23 333.008 3082.22 298.638 3156.24 282.806C3195.57 274.458 3235.02 271.865 3274.12 270.341C3355.7 267.156 3418.31 247.548 3495.8 258.376C3516.01 261.242 3535.39 266.838 3555.2 272.297C3575.86 277.984 3603.72 282.692 3613.81 283.784" stroke="#F5F8FF" stroke-opacity="0.3" stroke-width="1.0073" stroke-miterlimit="10" stroke-linecap="round" stroke-linejoin="round"/>
<path d="M-274.174 353.752C-194.95 303.095 -78.1815 281.781 43.0751 282.622C126.964 283.123 213.474 294.382 289.721 313.922C357.925 331.437 421.108 354.32 480.736 380.32C584.753 425.723 680.017 476.266 789.365 516.096C827.355 529.949 868.322 542.437 911.377 553.037C1059.78 589.5 1228 601.761 1365.48 560.225C1456.3 532.792 1521.08 486.73 1580.4 437.665C1607.37 415.282 1633.32 392.603 1659.76 370.994C1746.09 300.774 1860.24 236.355 2012.82 229.463C2169.04 222.411 2307.76 282.691 2451.86 319.677C2632.21 365.944 2841.93 371.267 3028.55 337.852C3090.13 326.706 3146.52 300.865 3212.5 285.011C3247.29 276.685 3282.26 271.385 3317.27 267.609C3387.56 260.012 3448.84 247.592 3516.51 258.374C3534.32 261.24 3551.7 266.063 3569.2 271.454C3587.51 277.118 3609.33 283.009 3622.17 287.922" stroke="#F5F8FF" stroke-opacity="0.3" stroke-width="1.0073" stroke-miterlimit="10" stroke-linecap="round" stroke-linejoin="round"/>
<path d="M-266.57 326.527C-133.583 241.409 113.773 247.186 296.48 298.071C479.187 348.956 623.549 434.438 792.837 498.471C962.125 562.503 1184.07 604.585 1366.37 555.724C1503.67 518.943 1585.07 440.125 1669.31 369.109C1753.51 298.094 1863.97 225.645 2015.53 215.341C2182.56 203.967 2330.96 271.184 2484.74 310.855C2676.91 360.443 2901.3 365.652 3100.49 330.053C3266.09 300.459 3460.97 196.575 3630.62 292.066" stroke="#F5F8FF" stroke-opacity="0.3" stroke-width="1.0073" stroke-miterlimit="10" stroke-linecap="round" stroke-linejoin="round"/>
<path d="M-261.334 310.446C-112.351 220.71 154.733 227.238 350.37 284.992C525.035 336.559 665.219 419.062 830.553 480.001C1000.82 542.782 1221.03 577.13 1398.71 525.654C1533.7 486.188 1617.68 409.509 1709.43 347.273C1800.25 285.652 1908.22 224.85 2055.16 220.369C2216.23 215.455 2361.75 281.239 2514.19 318.544C2701.7 364.424 2917.73 366.221 3110.21 330.759C3271.33 300.983 3481.45 193.573 3640.34 294.25" stroke="#F5F8FF" stroke-opacity="0.3" stroke-width="1.0073" stroke-miterlimit="10" stroke-linecap="round" stroke-linejoin="round"/>
<path d="M-256.137 294.361C-91.1584 200.03 195.699 207.127 404.221 271.91C571.199 323.795 706.985 403.614 868.275 461.55C1039.61 523.058 1258.39 550.036 1431.06 495.602C1564.05 453.68 1649.76 379.093 1749.55 325.433C1846.5 273.32 1952.34 224.028 2094.79 225.393C2249.86 226.871 2392.54 291.336 2543.65 326.229C2726.45 368.448 2934.17 366.787 3119.9 331.484C3276.48 301.549 3501.89 190.613 3650.02 296.431" stroke="#F5F8FF" stroke-opacity="0.3" stroke-width="1.0073" stroke-miterlimit="10" stroke-linecap="round" stroke-linejoin="round"/>
<path d="M-250.895 278.279C-69.9204 179.353 236.842 186.837 458.072 258.853C617.586 310.784 748.751 388.192 905.998 443.103C1078.44 503.336 1295.49 522.694 1463.45 465.531C1594.26 421.016 1681.21 348.749 1789.76 303.596C1892.14 261.014 1996.51 223.164 2134.52 230.42C2283.5 238.267 2423.37 301.458 2573.2 333.918C2751.2 372.497 2950.7 367.356 3129.72 332.212C3281.81 302.095 3522.46 187.633 3659.89 298.615" stroke="#F5F8FF" stroke-opacity="0.3" stroke-width="1.0073" stroke-miterlimit="10" stroke-linecap="round" stroke-linejoin="round"/>
<path d="M-245.65 262.195C-48.6806 158.674 278.21 166.317 511.97 245.771C664.241 297.52 790.652 372.676 943.722 424.653C1117.32 483.567 1332.55 495.327 1495.8 435.48C1624.43 388.326 1711.87 318.357 1829.89 281.757C1936.88 248.569 2040.54 222.251 2174.15 235.467C2317.05 249.593 2454.03 311.624 2602.7 341.627C2775.9 376.611 2967.18 367.945 3139.49 332.96C3287.1 302.684 3542.99 184.696 3669.66 300.841" stroke="#F5F8FF" stroke-opacity="0.3" stroke-width="1.0073" stroke-miterlimit="10" stroke-linecap="round" stroke-linejoin="round"/>
<path d="M-240.408 246.113C-27.4871 137.998 319.798 145.618 565.822 232.693C711.072 284.101 832.506 357.141 981.444 406.183C1156.24 463.732 1369.61 467.895 1528.14 405.41C1654.55 355.594 1741.78 287.717 1870.01 259.921C1981 235.877 2084.57 221.251 2213.83 240.495C2350.59 260.853 2484.73 321.792 2632.21 349.316C2800.56 380.752 2983.67 368.514 3149.27 333.666C3292.39 303.231 3563.51 181.694 3679.44 303.003" stroke="#F5F8FF" stroke-opacity="0.3" stroke-width="1.0073" stroke-miterlimit="10" stroke-linecap="round" stroke-linejoin="round"/>
<path d="M-235.166 230.034C-6.24915 117.323 361.653 124.67 619.718 219.616C758.125 270.546 874.539 341.584 1019.21 387.715C1195.25 443.854 1406.62 440.442 1560.53 375.318C1684.68 322.818 1771.28 256.602 1910.22 238.041C2024.77 222.732 2128.69 220.162 2253.55 245.479C2384.18 271.979 2515.48 331.963 2661.75 356.961C2825.18 384.894 3000.33 369.199 3159.04 334.351C3297.76 303.893 3584.04 178.694 3689.21 305.167" stroke="#F5F8FF" stroke-opacity="0.3" stroke-width="1.0073" stroke-miterlimit="10" stroke-linecap="round" stroke-linejoin="round"/>
<path d="M-229.963 213.95C14.9497 96.6446 403.868 103.491 673.53 206.557C805.273 256.919 916.488 325.978 1056.85 369.288C1234.23 423.994 1443.46 412.985 1592.8 345.29C1714.63 290.061 1800.56 225.051 1950.26 216.248C2068.31 209.287 2172.69 219.068 2293.1 250.55C2417.69 283.123 2545.97 342.288 2691.13 364.693C2849.62 389.169 3016.68 369.811 3168.69 335.123C3302.92 304.483 3604.44 175.758 3698.9 307.394" stroke="#F5F8FF" stroke-opacity="0.3" stroke-width="1.0073" stroke-miterlimit="10" stroke-linecap="round" stroke-linejoin="round"/>
<path d="M-224.719 197.847C36.1896 75.9465 446.569 82.0199 727.428 193.457C852.683 243.136 958.566 310.307 1094.62 350.797C1273.37 404.001 1480.38 385.463 1625.19 315.198C1744.67 257.239 1830.69 200.303 1990.43 194.389C2111.95 189.885 2216.9 217.864 2332.78 255.556C2451.41 294.157 2576.58 352.571 2720.63 372.361C2874.15 393.447 3033.04 370.2 3178.46 335.829C3308.07 304.893 3624.97 172.78 3708.68 309.557" stroke="#F5F8FF" stroke-opacity="0.3" stroke-width="1.0073" stroke-miterlimit="10" stroke-linecap="round" stroke-linejoin="round"/>
<path d="M-219.477 181.766C57.4276 55.2707 489.713 60.2977 781.28 180.378C900.137 229.33 1000.64 294.613 1132.34 332.327C1312.52 383.963 1517.22 357.918 1657.54 285.128C1774.57 224.416 1860.46 160.543 2030.55 172.531C2156.56 181.402 2261.24 216.614 2372.41 260.561C2485.18 305.145 2607.11 362.945 2750.09 380.05C2898.63 397.816 3049.48 370.77 3188.15 336.558C3313.27 305.441 3645.41 169.801 3718.36 311.764" stroke="#F5F8FF" stroke-opacity="0.3" stroke-width="1.0073" stroke-miterlimit="10" stroke-linecap="round" stroke-linejoin="round"/>
<path d="M-214.236 165.68C78.6635 34.5673 533.431 38.275 835.173 167.295C947.765 215.45 1042.81 278.868 1170.06 313.876C1351.75 363.851 1553.69 330.254 1689.88 255.052C1804.25 191.452 1891.25 127.92 2070.71 150.69C2201.43 167.272 2305.71 215.382 2412.13 265.607C2519.21 316.151 2637.72 373.404 2779.68 387.758C2923.2 402.247 3066.05 371.357 3198.01 337.282C3318.65 306.005 3665.98 166.84 3728.23 313.944" stroke="#F5F8FF" stroke-opacity="0.3" stroke-width="1.0073" stroke-miterlimit="10" stroke-linecap="round" stroke-linejoin="round"/>
<path d="M-208.994 149.596C99.8571 13.8879 577.863 15.9123 889.025 154.236C995.53 201.572 1084.93 263.102 1207.78 295.426C1391.07 343.672 1590.66 302.818 1722.23 225.001C1834.28 158.717 1922.62 95.2533 2110.83 128.85C2246.71 153.121 2350.28 214.128 2451.76 270.631C2553.25 327.135 2668.29 383.956 2809.14 395.443C2947.68 406.749 3082.49 371.923 3207.74 338.008C3323.89 306.549 3686.46 163.858 3738 316.125" stroke="#F5F8FF" stroke-opacity="0.3" stroke-width="1.0073" stroke-miterlimit="10" stroke-linecap="round" stroke-linejoin="round"/>
<path d="M-267.023 172.231C-88.5821 94.8467 152.731 59.6801 377.916 75.8076C549.293 88.0909 716.093 122.894 852.723 171.64C885.559 183.355 916.884 195.911 947.631 208.262C1018.63 236.81 1085.82 265.357 1168.99 281.303C1193.83 286.057 1218.94 289.378 1244.31 291.22C1401.11 302.503 1566.13 261.9 1686.01 200.165C1717.12 184.242 1746.88 168.819 1776.97 155.194C1861.79 116.729 1949.99 92.9587 2087.77 118.617C2182.32 136.382 2262.57 170.707 2337.44 208.99C2371.16 226.21 2403.78 244.248 2436.17 261.945C2540.01 318.698 2655.58 376.248 2794.65 392.58C2833.04 397.016 2871.16 398.085 2908.93 396.879C2971.27 394.855 3032.63 386.416 3093.46 374.701C3127.45 368.173 3160.91 360.189 3193.66 351.636C3243.46 338.625 3328.24 307.029 3415.06 283.486C3547.69 247.501 3690.99 227.666 3732.09 314.331" stroke="#F5F8FF" stroke-opacity="0.3" stroke-width="1.0212" stroke-miterlimit="10" stroke-linecap="round" stroke-linejoin="round"/>
<path d="M-325.004 194.892C-144.918 117.803 105.593 80.0886 331.355 99.9921C506.286 115.414 676.019 150.718 816.515 189.114C849.972 198.258 881.919 207.721 913.111 216.774C984.514 237.519 1049.56 257.923 1130.3 267.227C1154.34 270.002 1178.68 271.64 1203.39 271.89C1356.99 273.437 1522.99 231.696 1649.89 175.352C1682.86 160.726 1714.94 146.964 1746.98 134.908C1836.55 101.198 1928.57 81.7491 2064.8 108.408C2160.25 127.084 2242.36 161.659 2319.23 200.055C2353.84 217.343 2387.43 235.449 2420.71 253.283C2526.86 310.264 2642.92 368.769 2780.35 389.764C2818.07 395.519 2855.62 398.089 2892.81 398.726C2954.52 399.773 3015.44 395.019 3076.98 386.079C3111.9 381.007 3146.29 373.75 3179.8 365.289C3233.2 351.8 3317.27 318.794 3401.6 293.863C3532.1 255.285 3675.13 230.786 3726.36 312.516" stroke="#F5F8FF" stroke-opacity="0.3" stroke-width="1.0351" stroke-miterlimit="10" stroke-linecap="round" stroke-linejoin="round"/>
<path d="M-382.99 217.52C-201.261 140.727 58.4478 100.533 284.788 124.122C463.273 142.728 635.628 178.532 780.3 206.511C814.247 213.084 846.816 219.431 878.541 225.186C949.944 238.152 1013.22 250.412 1091.55 253.073C1114.74 253.87 1138.38 253.824 1162.42 252.505C1312.91 244.27 1480.07 201.552 1613.72 150.485C1648.6 137.156 1682.86 125.054 1716.94 114.568C1811.14 85.5884 1907.07 70.621 2041.79 98.1447C2138.12 117.821 2222.09 152.532 2300.96 191.066C2336.51 208.421 2370.99 226.573 2405.2 244.589C2513.66 301.82 2630.21 361.121 2765.99 386.916C2803.05 393.945 2840.02 398.062 2876.59 400.541C2937.68 404.681 2998.24 403.658 3060.36 397.448C3096.31 393.854 3131.5 387.325 3165.8 378.932C3222.76 364.965 3306.16 330.526 3388.05 304.254C3516.42 263.059 3659.18 233.943 3720.54 310.737" stroke="#F5F8FF" stroke-opacity="0.3" stroke-width="1.0489" stroke-miterlimit="10" stroke-linecap="round" stroke-linejoin="round"/>
<path d="M-441.018 240.179C-257.6 163.659 11.2177 121.054 238.18 148.282C420.22 170.119 594.84 206.468 744.045 223.961C778.48 227.987 811.449 231.262 843.974 233.674C915.022 238.974 976.783 243 1052.85 238.974C1075.2 237.791 1098.13 236.039 1121.5 233.173C1268.93 215.067 1437.28 171.484 1577.65 125.672C1614.44 113.661 1650.87 103.175 1686.99 94.2809C1785.72 70.01 1885.65 59.5692 2018.86 87.9346C2116.04 108.611 2201.92 143.46 2282.79 182.129C2319.23 199.531 2354.68 217.774 2389.78 235.926C2500.56 293.407 2617.64 353.481 2751.73 384.076C2788.12 392.378 2824.51 398.065 2860.5 402.364C2921.02 409.62 2981.23 412.327 3043.88 408.802C3080.85 406.709 3116.88 400.886 3151.94 392.56C3212.5 378.162 3295.19 342.222 3374.63 314.607C3500.82 270.774 3643.41 237.04 3714.85 308.897" stroke="#F5F8FF" stroke-opacity="0.3" stroke-width="1.0628" stroke-miterlimit="10" stroke-linecap="round" stroke-linejoin="round"/>
<path d="M-499 262.81C-313.938 186.608 -35.9676 141.638 191.572 172.437C377.123 197.55 553.876 234.604 707.746 241.406C742.581 242.952 775.95 243.18 809.363 242.156C879.744 240.018 940.306 235.628 1014.06 224.891C1035.57 221.752 1057.83 218.249 1080.45 213.836C1224.85 185.767 1394.36 141.433 1541.39 100.876C1580.14 90.1845 1618.66 81.2906 1656.87 74.0344C1760.04 54.4038 1864.02 48.5806 1995.76 77.7648C2093.78 99.4652 2181.58 134.45 2264.44 173.211C2301.81 190.68 2338.2 208.969 2374.19 227.303C2487.32 285.011 2604.89 345.859 2737.25 381.299C2772.97 390.875 2808.83 398.131 2844.2 404.273C2904.1 414.668 2963.99 421.151 3027.17 420.241C3065.16 419.695 3102.04 414.555 3137.81 406.275C3201.97 391.444 3283.86 353.957 3360.91 325.069C3484.87 278.551 3627.28 240.268 3708.86 307.189" stroke="#F5F8FF" stroke-opacity="0.3" stroke-width="1.0767" stroke-miterlimit="10" stroke-linecap="round" stroke-linejoin="round"/>
<path d="M-556.992 285.444C-370.286 209.538 -83.2071 162.247 144.999 196.595C334.104 225.051 512.857 262.925 671.525 258.83C706.716 257.921 740.529 255.191 774.787 250.619C844.546 241.315 903.864 228.304 975.311 210.766C995.972 205.694 1017.52 200.394 1039.47 194.48C1180.77 156.356 1351.57 111.385 1505.21 76.0368C1545.92 66.6651 1586.53 59.3406 1626.83 53.7221C1734.44 38.6865 1842.46 37.5491 1972.74 67.5295C2071.55 90.2763 2161.31 125.352 2246.17 164.249C2284.43 181.787 2321.75 200.121 2358.68 218.614C2474.11 276.573 2592.26 338.149 2722.89 378.456C2757.99 389.284 2793.23 398.155 2828.02 406.094C2887.34 419.628 2946.92 429.932 3010.59 431.616C3049.65 432.639 3087.37 428.158 3123.85 419.924C3191.61 404.661 3272.74 365.627 3347.39 335.442C3469.14 286.218 3611.41 243.385 3703.07 305.393" stroke="#F5F8FF" stroke-opacity="0.3" stroke-width="1.0906" stroke-miterlimit="10" stroke-linecap="round" stroke-linejoin="round"/>
<path d="M-615.018 308.103C-426.668 232.47 -130.48 182.95 98.3482 220.755C290.919 252.555 471.893 291.475 635.228 276.28C670.863 272.959 705.165 267.318 740.178 259.106C809.626 242.797 867.477 221.051 936.525 196.689C956.387 189.683 977.181 182.609 998.464 175.148C1136.56 126.924 1308.74 81.3853 1469.01 51.223C1511.66 43.1933 1554.32 37.4156 1596.75 33.4349C1708.76 22.9259 1820.82 26.5426 1949.68 57.3191C2049.34 81.1123 2140.96 116.279 2227.87 155.313C2267.06 172.896 2305.32 191.321 2343.13 209.973C2460.88 268.182 2579.6 330.463 2708.5 375.638C2742.93 387.717 2777.59 398.203 2811.8 407.939C2870.46 424.658 2929.77 438.784 2994.02 442.992C3034.1 445.608 3072.67 441.763 3109.9 433.575C3181.31 417.902 3261.55 377.299 3333.84 345.84C3453.28 293.886 3595.46 246.55 3697.3 303.599" stroke="#F5F8FF" stroke-opacity="0.3" stroke-width="1.1045" stroke-miterlimit="10" stroke-linecap="round" stroke-linejoin="round"/>
<path d="M-672.998 330.734C-483.004 255.397 -177.796 203.67 51.7869 244.888C247.824 280.1 431.242 320.134 599.019 293.68C635.098 287.993 670.067 279.44 705.657 267.544C775.061 244.296 831.268 213.747 897.829 182.539C916.89 173.599 936.885 164.705 957.546 155.766C1092.27 97.3972 1266 51.3576 1432.89 26.3588C1477.5 19.6712 1522.24 15.3948 1566.76 13.0973C1683.18 7.06942 1799.28 15.5312 1926.71 47.0584C2027.17 71.9207 2120.75 107.178 2209.66 146.326C2249.74 163.977 2288.93 182.448 2327.67 201.259C2447.73 259.696 2567.12 322.705 2694.15 372.77C2727.96 386.1 2761.96 398.201 2795.59 409.757C2853.58 429.638 2912.63 447.653 2977.41 454.341C3018.51 458.594 3057.92 455.342 3095.91 447.198C3170.96 431.116 3250.31 388.898 3320.3 356.188C3437.38 301.459 3579.56 249.642 3691.49 301.778" stroke="#F5F8FF" stroke-opacity="0.3" stroke-width="1.1184" stroke-miterlimit="10" stroke-linecap="round" stroke-linejoin="round"/>
<path d="M-731.033 353.37C-539.395 278.328 -225.168 224.418 5.17091 269.047C204.629 307.694 390.802 348.911 562.711 311.129C599.324 303.076 635.003 291.635 670.994 276.008C740.664 245.823 794.961 206.471 858.988 168.438C877.25 157.588 896.445 146.874 916.484 136.433C1047.74 67.9195 1223.16 21.4249 1396.67 1.54412C1443.23 -3.80139 1490.06 -6.57642 1536.67 -7.19059C1657.53 -8.78287 1777.63 4.56948 1903.64 36.8245C2004.86 62.7559 2100.44 98.0818 2191.34 137.366C2232.36 155.085 2272.48 173.624 2312.11 192.595C2434.52 251.282 2554.49 314.973 2679.75 369.952C2712.94 384.51 2746.26 398.272 2779.37 411.602C2836.68 434.667 2895.38 456.572 2960.78 465.739C3002.86 471.631 3043.21 468.969 3081.91 460.871C3160.55 444.403 3239.02 400.547 3306.74 366.608C3421.42 309.104 3563.6 252.806 3685.66 300.006" stroke="#F5F8FF" stroke-opacity="0.3" stroke-width="1.1323" stroke-miterlimit="10" stroke-linecap="round" stroke-linejoin="round"/>
<path d="M-789.016 376.026C-595.734 301.28 -272.709 245.436 -41.4367 293.204C161.221 335.514 350.637 377.732 526.457 328.553C563.647 318.158 600.082 303.759 636.427 284.47C706.542 247.279 759.017 199.26 820.245 154.312C837.796 141.551 856.058 129.018 875.519 117.053C1003.22 38.3715 1180.37 -8.41883 1360.5 -23.318C1409.07 -27.2532 1457.94 -28.618 1506.6 -27.5261C1631.98 -24.7055 1755.91 -6.34888 1880.59 26.5658C1982.51 53.6573 2080.13 88.9832 2173.04 128.381C2214.94 146.146 2256.04 164.753 2296.56 183.883C2421.29 242.82 2542.1 307.103 2665.35 367.063C2697.97 382.85 2730.54 398.295 2763.15 413.376C2819.67 439.694 2878.14 465.444 2944.17 477.044C2987.18 484.596 3028.5 482.549 3067.91 474.451C3150.25 457.664 3227.74 412.102 3293.14 376.913C3405.34 316.588 3547.65 255.877 3679.8 298.14" stroke="#F5F8FF" stroke-opacity="0.3" stroke-width="1.1462" stroke-miterlimit="10" stroke-linecap="round" stroke-linejoin="round"/>
<path d="M-847 398.656C-652.03 324.205 -319.94 266.019 -88.0018 317.358C161.576 372.588 391.204 424.792 601.904 292.951C692.724 236.107 749.642 158.54 834.597 97.7148C992.156 -15.0868 1238.31 -61.0127 1476.6 -47.7968C1714.9 -34.5809 1946.12 32.5451 2154.78 119.461C2363.48 206.376 2553.21 313.127 2746.93 415.261C2802.79 444.718 2860.81 474.448 2927.6 488.46C3065.52 517.417 3186.86 440.76 3279.64 387.35C3389.3 324.205 3531.75 259.058 3674.02 296.386" stroke="#F5F8FF" stroke-opacity="0.3" stroke-width="1.1601" stroke-miterlimit="10" stroke-linecap="round" stroke-linejoin="round"/>
</svg>
