<svg width="1920" height="503" viewBox="0 0 1920 503" fill="none" xmlns="http://www.w3.org/2000/svg">
<path d="M-129.797 445.335C-76.4785 410.361 -15.6557 378.05 57.9837 358.986C157.706 333.163 290.482 335.54 370.642 384.016C462.945 439.832 515.841 495.335 663.963 502.542C768.408 507.626 892.499 483.343 949.892 431.608C983.958 400.912 1002.73 365.28 1031.01 332.595C1098.83 254.215 1213.62 235.585 1348.22 277.451C1412.5 297.442 1485.27 320.558 1553.09 307.176C1642.02 289.637 1675.58 217.179 1768.08 206.891C1818.61 201.269 1868.9 216.685 1917.32 227.884C2032.67 254.574 2080.57 196.47 2185.21 203.826C2211.46 205.665 2235.27 214.054 2260.96 217.911C2287.49 221.889 2339.49 217.896 2330.27 195.916" stroke="#F5F8FF" stroke-width="1.0073" stroke-miterlimit="10" stroke-linecap="round" stroke-linejoin="round"/>
<path d="M-124.988 427.437C-71.9791 392.628 -9.86338 362.14 64.0853 345.035C117.094 332.714 178.676 328.273 236.435 333.955C287.421 338.994 335.596 351.823 373.174 373.982C442.204 414.727 490.632 455.652 571.383 477.377C598.168 484.599 628.608 489.653 664.416 492.015C767.848 498.834 889.887 477.871 950.485 428.648C986.743 399.177 1007.91 364.114 1037.08 331.473C1052.03 314.697 1068.9 300.432 1087.56 288.77C1154.29 247.217 1242.46 242.193 1349.94 268.166C1383.97 276.389 1420.04 287.738 1456.01 296.126C1502.75 306.982 1552.11 311.078 1598.57 302.047C1682.5 285.525 1716.28 218.629 1803.69 208.312C1851.39 202.705 1898.89 216.177 1944.65 226.06C2053.03 249.46 2099.88 196.47 2198.34 203.796C2223.1 205.65 2245.61 213.5 2269.84 217.328C2294.86 221.275 2343.06 218.076 2335.58 198.623" stroke="#F5F8FF" stroke-width="1.0073" stroke-miterlimit="10" stroke-linecap="round" stroke-linejoin="round"/>
<path d="M-120.152 409.539C-67.4804 374.91 -4.0437 346.246 70.2141 331.1C123.223 320.185 184.046 317.06 240.737 323.549C290.851 329.305 338.127 342.389 375.706 363.98C444.37 403.513 494.119 443.585 573.577 465.804C600.053 473.236 629.987 478.589 664.867 481.519C767.26 490.102 887.359 472.428 951.049 425.717C989.555 397.473 1013.02 362.993 1043.13 330.397C1058.3 313.845 1075.14 299.506 1093.58 287.574C1158.95 245.513 1243.98 238.501 1351.63 258.925C1392.41 266.656 1434.65 280.217 1476.78 290.355C1531 303.393 1589.69 307.52 1644.05 296.949C1723.08 281.578 1756.95 220.094 1839.3 209.762C1884.13 204.17 1928.88 215.713 1971.97 224.266C2073.38 244.392 2119.22 196.5 2211.46 203.811C2234.74 205.665 2255.96 213.007 2278.72 216.79C2302.25 220.722 2346.63 218.3 2340.87 201.359" stroke="#F5F8FF" stroke-width="1.0073" stroke-miterlimit="10" stroke-linecap="round" stroke-linejoin="round"/>
<path d="M-115.35 391.656C-62.9869 357.191 1.79898 330.441 76.3098 317.179C129.375 307.729 189.383 305.86 245.034 313.142C294.277 319.616 340.625 332.938 378.232 353.961C446.531 392.284 497.601 431.503 575.765 454.216C601.932 461.856 631.388 467.523 665.285 470.992C766.666 481.369 884.854 466.97 951.607 422.756C992.39 395.738 1018.14 361.826 1049.19 329.275C1064.62 312.947 1081.35 298.518 1099.62 286.317C1163.48 243.674 1246.59 233.79 1353.31 249.61C1401.15 256.712 1449.29 272.606 1497.52 284.523C1559.22 299.729 1627.18 303.826 1689.46 291.79C1763.5 277.466 1797.59 221.499 1874.88 211.167C1916.87 205.59 1958.81 215.204 1999.26 222.426C2093.64 239.293 2138.5 196.484 2224.59 203.766C2246.34 205.62 2266.3 212.438 2287.6 216.206C2309.64 220.109 2350.2 218.479 2346.18 204.065" stroke="#F5F8FF" stroke-width="1.0073" stroke-miterlimit="10" stroke-linecap="round" stroke-linejoin="round"/>
<path d="M-110.541 373.758C-58.4875 339.458 7.59128 314.563 82.4112 303.244C135.477 295.214 194.725 294.646 249.309 302.72C297.68 309.912 343.129 323.489 380.735 343.944C448.697 381.055 501.06 419.407 577.96 442.628C603.818 450.478 632.796 456.474 665.709 460.481C766.078 472.682 882.411 461.543 952.172 419.811C995.26 394.034 1023.39 360.72 1055.24 328.169C1070.95 312.095 1087.56 297.577 1105.63 285.092C1168.12 241.925 1249.74 228.408 1355 240.34C1410.09 246.59 1463.91 265.056 1518.3 278.737C1587.47 296.111 1664.73 300.178 1734.94 286.662C1804 273.369 1838.29 222.935 1910.5 212.588C1949.62 207.026 1988.77 214.726 2026.55 220.618C2113.9 234.239 2157.78 196.515 2237.69 203.752C2257.95 205.606 2276.61 211.9 2296.46 215.639C2317 219.511 2353.74 218.659 2351.46 206.772" stroke="#F5F8FF" stroke-width="1.0073" stroke-miterlimit="10" stroke-linecap="round" stroke-linejoin="round"/>
<path d="M-105.738 355.861C-54.022 321.725 13.3778 298.668 88.4788 289.308C141.544 282.684 200.062 283.432 253.577 292.299C301.078 300.208 345.599 314.024 383.233 333.926C450.83 369.826 504.514 407.326 580.121 431.04C605.698 439.1 634.17 445.439 666.127 449.97C765.484 464.04 879.991 456.13 952.703 416.866C998.123 392.344 1028.48 359.584 1061.25 327.077C1077.22 311.228 1093.74 296.635 1111.62 283.88C1172.75 240.19 1253.08 222.531 1356.65 231.084C1419.13 236.243 1478.52 257.505 1539.01 272.965C1615.68 292.523 1702.19 296.545 1780.36 281.563C1844.41 269.287 1878.93 224.415 1946.05 214.053C1982.33 208.506 2018.68 214.278 2053.81 218.838C2134.08 229.23 2177.03 196.559 2250.75 203.781C2269.53 205.65 2286.93 211.422 2305.31 215.115C2324.36 218.958 2357.28 218.898 2356.71 209.538" stroke="#F5F8FF" stroke-width="1.0073" stroke-miterlimit="10" stroke-linecap="round" stroke-linejoin="round"/>
<path d="M-100.902 337.978C-49.5234 304.007 19.1693 282.79 94.6076 275.373C147.673 270.155 205.432 272.219 257.879 281.878C304.508 290.52 348.13 304.575 385.793 323.908C453.024 358.598 508.029 395.245 582.343 419.453C607.611 427.722 635.577 434.42 666.578 439.444C764.895 455.413 877.659 450.718 953.294 413.906C1001.08 390.64 1033.65 358.433 1067.32 325.957C1083.51 310.347 1100.01 295.679 1117.66 282.625C1177.45 238.427 1256.59 227.736 1358.34 221.785C1428.16 217.703 1493.14 249.925 1559.78 267.15C1643.93 288.875 1739.72 292.853 1825.81 276.42C1884.86 265.146 1919.57 225.837 1981.63 215.46C2015.05 209.928 2048.58 213.8 2081.1 217C2154.26 224.192 2196.34 196.545 2263.88 203.737C2281.17 205.606 2297.27 210.855 2314.19 214.533C2331.76 218.361 2360.82 219.078 2362.03 212.23" stroke="#F5F8FF" stroke-width="1.0073" stroke-miterlimit="10" stroke-linecap="round" stroke-linejoin="round"/>
<path d="M-96.0977 320.081C-45.0278 286.288 24.9578 266.881 100.705 261.438C153.771 257.625 210.771 261.004 262.15 271.471C307.908 280.831 350.602 295.125 388.293 313.905C455.158 347.383 511.484 383.179 584.505 407.88C609.464 416.358 636.924 423.415 666.97 428.948C764.247 446.86 875.325 445.365 953.827 410.975C1004 388.995 1038.71 357.297 1073.34 324.88C1089.75 309.494 1106.19 294.766 1123.65 281.429C1182.11 236.737 1260.5 219.467 1360 212.544C1436.73 207.191 1507.75 242.389 1580.52 261.393C1672.15 285.287 1777.21 289.204 1871.26 271.336C1925.28 261.064 1960.24 227.317 2017.21 216.94C2047.79 211.423 2078.46 213.411 2108.36 215.236C2174.36 219.258 2215.59 196.605 2276.95 203.767C2292.72 205.636 2307.56 210.361 2323.01 214.009C2339.09 217.807 2364.33 219.317 2367.25 214.996" stroke="#F5F8FF" stroke-width="1.0073" stroke-miterlimit="10" stroke-linecap="round" stroke-linejoin="round"/>
<path d="M-91.2891 302.183C-40.5284 268.555 30.7501 250.971 106.807 247.502C159.872 245.08 216.114 249.79 266.453 261.049C311.339 271.127 353.134 285.675 390.825 303.887C457.325 336.154 514.972 371.083 586.728 396.292C611.378 404.979 638.332 412.411 667.45 418.421C763.631 438.308 873.079 440.012 954.448 408.015C1007.04 387.321 1043.77 356.1 1079.44 323.759C1096.02 308.582 1112.55 293.824 1129.69 280.188C1187 235.047 1263.93 210.63 1361.71 203.244C1445.47 196.919 1522.4 234.808 1601.29 255.577C1700.4 281.653 1814.71 285.481 1916.71 266.178C1965.73 256.907 2000.91 228.737 2052.8 218.331C2080.51 212.828 2108.34 212.948 2135.66 213.381C2194.46 214.308 2234.87 196.575 2290.05 203.722C2304.33 205.591 2317.87 209.808 2331.87 213.411C2346.43 217.179 2367.88 219.482 2372.54 217.673" stroke="#F5F8FF" stroke-width="1.0073" stroke-miterlimit="10" stroke-linecap="round" stroke-linejoin="round"/>
<path d="M-86.4844 284.299C-36.0329 250.836 36.5104 234.987 112.904 233.581C165.97 232.505 221.452 238.59 270.723 250.642C314.738 261.437 355.605 276.24 393.324 293.884C459.488 324.939 518.427 359.016 588.891 384.704C613.231 393.6 639.679 401.42 667.842 407.909C762.899 429.814 870.801 434.704 954.952 405.068C1009.98 385.69 1048.83 354.964 1085.42 322.652C1102.26 307.7 1118.7 292.867 1135.65 278.946C1191.61 233.297 1266.74 201.389 1363.31 193.958C1454.24 186.96 1536.96 227.242 1621.98 249.775C1728.56 278.019 1852.12 281.757 1962.1 261.049C2006.09 252.765 2041.5 230.172 2088.33 219.765C2113.2 214.278 2138.16 212.573 2162.89 211.572C2214.5 209.478 2254.1 196.59 2303.12 203.707C2315.9 205.591 2328.16 209.269 2340.69 212.858C2353.76 216.596 2371.39 219.691 2377.77 220.408" stroke="#F5F8FF" stroke-width="1.0073" stroke-miterlimit="10" stroke-linecap="round" stroke-linejoin="round"/>
<path d="M-81.6484 266.401C-31.5342 233.103 42.3301 219.092 119.033 219.646C172.099 219.975 226.822 227.376 275.053 240.22C318.197 251.733 358.165 266.775 395.884 283.866C461.682 313.71 521.942 346.934 591.113 373.115C615.144 382.221 641.058 390.43 668.294 397.398C762.17 421.366 868.582 429.425 955.544 402.123C1012.99 384.09 1053.97 353.812 1091.5 321.56C1108.56 306.847 1124.97 291.94 1141.69 277.735C1196.31 231.578 1268.51 189.233 1365.03 184.702C1463.85 180.067 1551.6 219.691 1642.75 244.003C1756.84 274.416 1889.5 277.915 2007.55 255.95C2046.5 248.623 2082.17 231.637 2123.91 221.216C2145.92 215.743 2168.04 212.259 2190.19 209.777C2234.65 204.783 2273.41 196.619 2316.22 203.707C2327.49 205.591 2338.48 208.76 2349.55 212.304C2361.13 216.027 2374.93 219.9 2383.05 223.13" stroke="#F5F8FF" stroke-width="1.0073" stroke-miterlimit="10" stroke-linecap="round" stroke-linejoin="round"/>
<path d="M-76.8398 248.504C7.28341 192.553 163.753 196.351 279.328 229.799C394.902 263.247 486.221 319.437 593.307 361.528C700.394 403.618 840.787 431.28 956.108 399.163C1042.96 374.985 1094.45 323.176 1147.74 276.495C1201 229.814 1270.87 182.191 1366.75 175.418C1472.4 167.941 1566.28 212.125 1663.55 238.202C1785.11 270.798 1927.05 274.222 2053.06 250.822C2157.81 231.369 2281.08 163.082 2388.4 225.851" stroke="#F5F8FF" stroke-width="1.0073" stroke-miterlimit="10" stroke-linecap="round" stroke-linejoin="round"/>
<path d="M-73.5254 237.933C20.7163 178.946 189.665 183.238 313.419 221.201C423.906 255.098 512.583 309.33 617.168 349.387C724.873 390.655 864.169 413.233 976.568 379.396C1061.96 353.454 1115.08 303.05 1173.12 262.141C1230.57 221.635 1298.87 181.668 1391.82 178.722C1493.7 175.492 1585.75 218.734 1682.19 243.256C1800.8 273.415 1937.45 274.596 2059.21 251.285C2161.12 231.713 2294.04 161.108 2394.55 227.287" stroke="#F5F8FF" stroke-width="1.0073" stroke-miterlimit="10" stroke-linecap="round" stroke-linejoin="round"/>
<path d="M-70.2363 227.361C34.1237 165.354 215.58 170.019 347.485 212.603C453.11 246.709 539.004 299.176 641.031 337.26C749.41 377.691 887.807 395.424 997.03 359.643C1081.15 332.086 1135.37 283.058 1198.5 247.786C1259.83 213.53 1326.78 181.129 1416.89 182.026C1514.98 182.998 1605.23 225.372 1700.82 248.309C1816.45 276.06 1947.85 274.969 2065.34 251.763C2164.38 232.086 2306.97 159.164 2400.68 228.721" stroke="#F5F8FF" stroke-width="1.0073" stroke-miterlimit="10" stroke-linecap="round" stroke-linejoin="round"/>
<path d="M-66.9219 216.79C47.5566 151.762 241.605 156.682 381.548 204.02C482.451 238.156 565.422 289.039 664.891 325.133C773.973 364.727 911.275 377.451 1017.52 339.876C1100.26 310.615 1155.27 263.112 1223.93 233.431C1288.69 205.441 1354.71 180.56 1442.01 185.33C1536.25 190.489 1624.73 232.026 1719.51 253.363C1832.11 278.722 1958.3 275.342 2071.55 252.241C2167.76 232.445 2319.98 157.205 2406.91 230.157" stroke="#F5F8FF" stroke-width="1.0073" stroke-miterlimit="10" stroke-linecap="round" stroke-linejoin="round"/>
<path d="M-63.6055 206.218C60.9914 138.171 267.772 143.195 415.641 195.423C511.963 229.439 591.926 278.841 688.754 313.007C798.566 351.734 934.715 359.464 1037.98 320.124C1119.35 289.129 1174.66 243.135 1249.31 219.077C1316.99 197.262 1382.57 179.962 1467.08 188.65C1557.47 197.935 1644.13 238.71 1738.17 258.432C1847.73 281.428 1968.73 275.731 2077.73 252.735C2171.1 232.833 2332.97 155.276 2413.1 231.622" stroke="#F5F8FF" stroke-width="1.0073" stroke-miterlimit="10" stroke-linecap="round" stroke-linejoin="round"/>
<path d="M-60.2891 195.648C74.3981 124.58 294.08 129.589 449.706 186.826C541.587 220.618 618.403 268.63 712.616 300.867C823.188 338.696 958.156 341.432 1058.44 300.358C1138.4 267.613 1193.58 222.996 1274.69 204.724C1344.9 188.919 1410.42 179.305 1492.18 191.955C1578.69 205.337 1663.55 245.394 1756.84 263.486C1863.33 284.15 1979.16 276.106 2083.91 253.199C2174.44 233.193 2345.95 153.303 2419.28 233.043" stroke="#F5F8FF" stroke-width="1.0073" stroke-miterlimit="10" stroke-linecap="round" stroke-linejoin="round"/>
<path d="M-56.9727 185.077C87.8329 110.989 320.556 115.818 483.8 178.229C571.352 211.707 644.991 258.403 736.507 288.726C847.865 325.628 981.569 323.385 1078.93 280.577C1157.46 246.067 1212.24 202.541 1300.13 190.34C1372.59 180.277 1438.33 178.588 1517.31 195.23C1599.94 212.649 1683 252.078 1775.53 268.511C1878.9 286.872 1989.7 276.555 2090.1 253.648C2177.84 233.627 2358.94 151.33 2425.46 234.464" stroke="#F5F8FF" stroke-width="1.0073" stroke-miterlimit="10" stroke-linecap="round" stroke-linejoin="round"/>
<path d="M-53.6836 174.504C101.24 97.395 347.258 101.896 517.837 169.644C601.174 202.748 671.525 248.143 760.314 276.612C872.515 312.573 1004.87 305.336 1099.34 260.838C1176.4 224.534 1230.76 181.8 1325.45 176.014C1400.13 171.438 1466.16 177.868 1542.33 198.562C1621.14 219.973 1702.28 258.864 1794.1 273.592C1894.36 289.681 2000.04 276.956 2096.2 254.154C2181.11 234.014 2371.84 149.399 2431.59 235.927" stroke="#F5F8FF" stroke-width="1.0073" stroke-miterlimit="10" stroke-linecap="round" stroke-linejoin="round"/>
<path d="M-50.3633 163.919C114.679 83.7898 374.272 87.7821 551.934 161.033C631.167 193.689 698.145 237.843 784.208 264.458C897.281 299.431 1028.23 287.245 1119.83 241.057C1195.41 202.959 1249.82 165.534 1350.87 161.646C1427.74 158.686 1494.13 177.077 1567.43 201.853C1642.47 227.227 1721.65 265.624 1812.77 278.632C1909.88 292.493 2010.39 277.212 2102.38 254.619C2184.37 234.284 2384.83 147.441 2437.78 237.349" stroke="#F5F8FF" stroke-width="1.0073" stroke-miterlimit="10" stroke-linecap="round" stroke-linejoin="round"/>
<path d="M-47.0488 153.348C128.112 70.1989 401.562 73.5033 585.998 152.436C661.183 184.613 724.76 227.526 808.068 252.317C922.041 286.259 1051.53 269.138 1140.29 221.291C1214.32 181.384 1268.65 139.398 1376.24 147.278C1455.96 153.109 1522.17 176.255 1592.5 205.143C1663.83 234.449 1740.96 272.443 1831.4 283.687C1925.36 295.365 2020.79 277.586 2108.51 255.098C2187.66 234.644 2397.75 145.483 2443.9 238.8" stroke="#F5F8FF" stroke-width="1.0073" stroke-miterlimit="10" stroke-linecap="round" stroke-linejoin="round"/>
<path d="M-43.7324 142.777C141.547 56.5921 429.218 59.0293 620.091 143.838C691.313 175.492 751.433 217.179 831.931 240.191C946.859 273.041 1074.6 250.956 1160.75 201.524C1233.1 159.718 1288.13 117.956 1401.65 132.923C1484.34 143.823 1550.31 175.447 1617.62 208.462C1685.36 241.686 1760.32 279.321 1850.12 288.755C1940.91 298.28 2031.27 277.975 2114.75 255.576C2191.06 235.017 2410.77 143.539 2450.14 240.235" stroke="#F5F8FF" stroke-width="1.0073" stroke-miterlimit="10" stroke-linecap="round" stroke-linejoin="round"/>
<path d="M-40.418 132.204C154.951 42.9987 457.323 44.3295 654.154 135.254C721.526 166.37 778.076 206.815 855.791 228.062C971.731 259.776 1097.99 232.922 1181.21 181.77C1252.1 138.2 1307.97 96.4829 1427.03 118.567C1512.98 134.521 1578.5 174.623 1642.69 211.765C1706.89 248.906 1779.66 286.257 1868.76 293.807C1956.39 301.239 2041.67 278.347 2120.9 256.053C2194.37 235.374 2423.72 141.579 2456.33 241.669" stroke="#F5F8FF" stroke-width="1.0073" stroke-miterlimit="10" stroke-linecap="round" stroke-linejoin="round"/>
<path d="M-77.125 147.082C35.7514 96.2143 188.399 73.0981 330.843 83.6992C439.251 91.7734 544.763 114.65 631.191 146.693C651.962 154.393 671.777 162.647 691.227 170.766C736.141 189.531 778.639 208.296 831.254 218.778C846.966 221.903 862.846 224.086 878.895 225.297C978.084 232.713 1082.47 206.023 1158.3 165.443C1177.98 154.977 1196.81 144.839 1215.84 135.883C1269.49 110.598 1325.28 94.9732 1412.44 111.839C1472.25 123.517 1523.02 146.08 1570.38 171.245C1591.71 182.563 1612.34 194.421 1632.83 206.053C1698.51 243.359 1771.62 281.188 1859.59 291.924C1883.88 294.84 1907.99 295.542 1931.88 294.75C1971.32 293.419 2010.13 287.872 2048.61 280.172C2070.11 275.88 2091.28 270.632 2111.99 265.01C2143.5 256.457 2197.13 235.689 2252.05 220.213C2335.94 196.559 2426.59 183.52 2452.59 240.488" stroke="#F5F8FF" stroke-width="1.0212" stroke-miterlimit="10" stroke-linecap="round" stroke-linejoin="round"/>
<path d="M-113.801 161.976C0.115521 111.303 158.581 86.5119 301.391 99.5951C412.047 109.733 519.414 132.939 608.288 158.178C629.452 164.189 649.66 170.409 669.391 176.36C714.559 189.996 755.707 203.408 806.777 209.524C821.982 211.348 837.385 212.425 853.012 212.589C950.177 213.606 1055.18 186.169 1135.46 149.132C1156.31 139.518 1176.6 130.472 1196.87 122.547C1253.53 100.388 1311.74 87.6035 1397.92 105.127C1458.29 117.403 1510.23 140.131 1558.85 165.37C1580.75 176.734 1602 188.636 1623.05 200.358C1690.2 237.814 1763.61 276.271 1850.55 290.072C1874.41 293.855 1898.16 295.544 1921.68 295.963C1960.72 296.651 1999.26 293.526 2038.19 287.649C2060.28 284.315 2082.03 279.545 2103.22 273.983C2137.01 265.116 2190.19 243.421 2243.53 227.033C2326.08 201.674 2416.56 185.57 2448.96 239.294" stroke="#F5F8FF" stroke-width="1.0351" stroke-miterlimit="10" stroke-linecap="round" stroke-linejoin="round"/>
<path d="M-150.482 176.852C-35.5262 126.373 128.757 99.9525 271.933 115.458C384.837 127.689 493.863 151.224 585.378 169.615C606.852 173.936 627.454 178.108 647.522 181.891C692.689 190.414 732.713 198.473 782.265 200.222C796.937 200.746 811.89 200.716 827.096 199.848C922.293 194.436 1028.03 166.355 1112.57 132.788C1134.64 124.026 1156.31 116.071 1177.87 109.178C1237.45 90.1289 1298.14 80.2904 1383.35 98.3826C1444.29 111.316 1497.41 134.133 1547.3 159.462C1569.79 170.871 1591.6 182.803 1613.24 194.645C1681.85 232.265 1755.57 271.245 1841.46 288.201C1864.91 292.821 1888.29 295.528 1911.42 297.158C1950.07 299.879 1988.38 299.206 2027.67 295.124C2050.41 292.762 2072.67 288.47 2094.37 282.953C2130.4 273.772 2183.16 251.135 2234.96 233.865C2316.16 206.786 2406.47 187.647 2445.28 238.126" stroke="#F5F8FF" stroke-width="1.0489" stroke-miterlimit="10" stroke-linecap="round" stroke-linejoin="round"/>
<path d="M-187.191 191.745C-71.1671 141.446 98.8783 113.44 242.447 131.338C357.6 145.692 468.059 169.586 562.442 181.084C584.224 183.731 605.079 185.884 625.654 187.469C670.596 190.952 709.664 193.599 757.783 190.952C771.921 190.175 786.424 189.024 801.208 187.14C894.466 175.238 1000.96 146.589 1089.75 116.475C1113.02 108.581 1136.07 101.688 1158.92 95.8413C1221.37 79.8872 1284.59 73.0242 1368.85 91.6696C1430.32 105.261 1484.65 128.168 1535.8 153.587C1558.85 165.025 1581.28 177.017 1603.48 188.949C1673.55 226.733 1747.62 266.222 1832.44 286.333C1855.46 291.79 1878.48 295.528 1901.25 298.354C1939.53 303.124 1977.61 304.903 2017.24 302.586C2040.63 301.21 2063.42 297.382 2085.6 291.91C2123.91 282.445 2176.21 258.821 2226.47 240.669C2306.29 211.856 2396.49 189.681 2441.68 236.916" stroke="#F5F8FF" stroke-width="1.0628" stroke-miterlimit="10" stroke-linecap="round" stroke-linejoin="round"/>
<path d="M-223.867 206.622C-106.803 156.532 69.0324 126.971 212.967 147.217C330.34 163.724 442.148 188.081 539.482 192.552C561.517 193.569 582.626 193.718 603.762 193.045C648.283 191.64 686.592 188.754 733.249 181.697C746.853 179.633 760.934 177.331 775.241 174.43C866.587 155.979 973.814 126.837 1066.82 100.177C1091.33 93.1494 1115.7 87.3032 1139.87 82.5334C1205.13 69.6296 1270.9 65.8018 1354.24 84.9855C1416.24 99.2499 1471.78 122.247 1524.2 147.725C1547.84 159.208 1570.86 171.23 1593.62 183.282C1665.18 221.215 1739.55 261.213 1823.28 284.508C1845.88 290.803 1868.56 295.573 1890.93 299.61C1928.82 306.443 1966.71 310.704 2006.68 310.106C2030.71 309.748 2054.04 306.368 2076.66 300.926C2117.25 291.177 2169.05 266.536 2217.79 247.546C2296.2 216.969 2386.29 191.804 2437.89 235.794" stroke="#F5F8FF" stroke-width="1.0767" stroke-miterlimit="10" stroke-linecap="round" stroke-linejoin="round"/>
<path d="M-260.549 221.5C-142.445 171.604 39.1525 140.519 183.508 163.096C303.13 181.802 416.203 206.697 516.572 204.006C538.833 203.408 560.222 201.613 581.892 198.608C626.02 192.493 663.542 183.94 708.738 172.412C721.807 169.077 735.439 165.593 749.324 161.706C838.703 136.646 946.745 107.085 1043.94 83.8496C1069.68 77.6893 1095.37 72.8746 1120.87 69.1814C1188.94 59.298 1257.27 58.5504 1339.68 78.2575C1402.19 93.2097 1458.96 116.266 1512.64 141.834C1536.84 153.363 1560.45 165.414 1583.81 177.57C1656.83 215.668 1731.57 256.144 1814.2 282.64C1836.41 289.757 1858.69 295.588 1880.7 300.807C1918.22 309.703 1955.91 316.476 1996.19 317.583C2020.9 318.256 2044.76 315.31 2067.84 309.897C2110.7 299.865 2162.02 274.207 2209.24 254.365C2286.25 222.008 2376.25 193.853 2434.23 234.613" stroke="#F5F8FF" stroke-width="1.0906" stroke-miterlimit="10" stroke-linecap="round" stroke-linejoin="round"/>
<path d="M-297.254 236.393C-178.11 186.677 9.24932 154.126 153.999 178.976C275.813 199.879 390.291 225.463 493.612 215.474C516.153 213.291 537.851 209.583 559.999 204.186C603.93 193.465 640.525 179.171 684.203 163.157C696.767 158.551 709.92 153.901 723.384 148.997C810.739 117.298 919.652 87.3638 1021.03 67.5372C1048.02 62.259 1075 58.4612 1101.84 55.8445C1172.7 48.9366 1243.58 51.314 1325.09 71.5444C1388.13 87.1844 1446.09 110.301 1501.07 135.959C1525.86 147.517 1550.06 159.628 1573.98 171.889C1648.46 210.152 1723.56 251.091 1805.1 280.786C1826.88 288.725 1848.8 295.618 1870.44 302.018C1907.55 313.008 1945.07 322.293 1985.71 325.059C2011.06 326.779 2035.46 324.252 2059.01 318.869C2104.18 308.567 2154.94 281.877 2200.67 261.198C2276.22 227.048 2366.16 195.932 2430.58 233.432" stroke="#F5F8FF" stroke-width="1.1045" stroke-miterlimit="10" stroke-linecap="round" stroke-linejoin="round"/>
<path d="M-333.934 251.269C-213.749 201.747 -20.6848 167.746 124.542 194.839C248.549 217.985 364.573 244.301 470.704 226.912C493.527 223.174 515.647 217.552 538.16 209.732C582.063 194.45 617.618 174.37 659.721 153.855C671.779 147.979 684.427 142.133 697.497 136.256C782.716 97.8889 892.613 67.6256 998.182 51.1931C1026.4 46.7972 1054.7 43.9861 1082.87 42.476C1156.51 38.5136 1229.95 44.0758 1310.56 64.7996C1374.11 81.1424 1433.3 104.318 1489.54 130.051C1514.89 141.654 1539.68 153.795 1564.19 166.161C1640.14 204.573 1715.66 245.991 1796.02 278.901C1817.41 287.663 1838.91 295.617 1860.19 303.213C1896.86 316.281 1934.22 328.123 1975.2 332.519C2001.2 335.315 2026.13 333.177 2050.16 327.824C2097.63 317.253 2147.83 289.502 2192.1 268C2266.16 232.025 2356.1 197.964 2426.9 232.235" stroke="#F5F8FF" stroke-width="1.1184" stroke-miterlimit="10" stroke-linecap="round" stroke-linejoin="round"/>
<path d="M-370.643 266.148C-249.419 216.821 -50.6482 181.384 95.0568 210.72C221.228 236.124 338.994 263.217 447.739 238.382C470.899 233.089 493.469 225.568 516.235 215.295C560.306 195.454 594.653 169.586 635.154 144.586C646.706 137.454 658.848 130.412 671.524 123.549C754.552 78.5124 865.517 47.95 975.273 34.8818C1004.73 31.368 1034.35 29.5439 1063.84 29.1402C1140.29 28.0935 1216.26 36.8704 1295.97 58.0727C1360 75.1183 1420.45 98.3391 1477.96 124.162C1503.9 135.809 1529.28 147.995 1554.35 160.466C1631.79 199.042 1707.68 240.909 1786.91 277.048C1807.91 286.618 1828.99 295.664 1849.92 304.426C1886.18 319.587 1923.31 333.986 1964.68 340.012C1991.3 343.885 2016.82 342.135 2041.3 336.812C2091.05 325.987 2140.69 297.159 2183.52 274.85C2256.07 237.051 2346.01 200.044 2423.22 231.07" stroke="#F5F8FF" stroke-width="1.1323" stroke-miterlimit="10" stroke-linecap="round" stroke-linejoin="round"/>
<path d="M-407.32 281.039C-285.056 231.906 -80.7208 195.198 65.5744 226.598C193.769 254.409 313.588 282.161 424.806 249.834C448.331 243.001 471.378 233.536 494.37 220.856C538.722 196.409 571.916 164.845 610.647 135.3C621.749 126.912 633.301 118.673 645.612 110.808C726.39 59.0882 838.452 28.3314 952.396 18.5377C983.117 15.9509 1014.03 15.0538 1044.81 15.7716C1124.13 17.6256 1202.52 29.692 1281.38 51.3279C1345.86 69.136 1407.61 92.3569 1466.38 118.254C1492.89 129.932 1518.89 142.163 1544.52 154.738C1623.41 193.479 1699.84 235.734 1777.8 275.148C1798.43 285.525 1819.04 295.677 1839.67 305.591C1875.42 322.89 1912.41 339.816 1954.17 347.442C1981.38 352.406 2007.52 351.06 2032.45 345.737C2084.53 334.703 2133.55 304.753 2174.92 281.622C2245.89 241.969 2335.92 202.061 2419.51 229.843" stroke="#F5F8FF" stroke-width="1.1462" stroke-miterlimit="10" stroke-linecap="round" stroke-linejoin="round"/>
<path d="M-444 295.916C-320.668 246.978 -110.599 208.73 36.1181 242.477C193.993 278.781 339.249 313.097 472.53 226.433C529.98 189.068 565.985 138.081 619.725 98.0985C719.391 23.9504 875.102 -6.23824 1025.84 2.44901C1176.57 11.1363 1322.84 55.2603 1454.83 112.393C1586.85 169.525 1706.86 239.696 1829.41 306.832C1864.74 326.195 1901.45 345.737 1943.69 354.948C2030.93 373.982 2107.69 323.593 2166.38 288.485C2235.75 246.978 2325.86 204.155 2415.85 228.691" stroke="#F5F8FF" stroke-width="1.1601" stroke-miterlimit="10" stroke-linecap="round" stroke-linejoin="round"/>
</svg>
